# xmcd
#
# Track frame offsets:
#	150
#	18029
#	33321
#	44512
#	59990
#	73056
#	87507
#	102404
#	114527
#	130134
#	146426
#	165173
#	180643
#	196454
#	212667
#	224590
#	247599
#	260498
#	273956
#	285761
#	302083
#
# Disc length: 4201 seconds
#
# Revision: 1
# Processed by: cddbd v1.5.2PL0 Copyright (c) Steve Scherf et al.
# Submitted via: dBpowerAMP V4.0
#
DISCID=31106715
DTITLE=Various Artist - Hott Urban Volume 44 Can
DYEAR=2018
DGENRE=Urban
TTITLE0=Nicki Minaj ft. Lil Wayne - Good Form
TTITLE1=Ella Mai - Shot Clock
TTITLE2=Derez De'shon ft. Mozzy - Whaddup Doe
TTITLE3=Drake - Mob Ties
TTITLE4=Venus - Throw It Back
TTITLE5=Meek Mill - Uptown Vibes
TTITLE6=Xxxtentacion X Lil Pump ft. Swae Lee And Maluma - Arms Around You
TTITLE7=Moneybagg Yo ft. J. Cole - Say Na
TTITLE8=Nicole Bus - You
TTITLE9=Sada Baby and Drego - Bloxk Party
TTITLE10=Mike Will Made-it X Pharrell Williams X Kendrick Lamar - The Mantra
TTITLE11=Lloyd - Caramel
TTITLE12=Jordan Hollywood ft. Lil Baby - Let Me Find Out
TTITLE13=Coi Leray - Huddy
TTITLE14=Post Malone and Swae Lee - Sunflower
TTITLE15=Travis Scott and Skrillex - Sicko Mode [Skrillex Remix]
TTITLE16=Tee Grizzley ft. Offset - Pray For The Drip
TTITLE17=Maxwell - Shame
TTITLE18=Jonn Hart and Too $hort - Whistle
TTITLE19=Trippie Redd - Topanga
TTITLE20=Stefflon Don ft. Tory Lanez - Senseless [Remix]
EXTD=
EXTT0=
EXTT1=
EXTT2=
EXTT3=
EXTT4=
EXTT5=
EXTT6=
EXTT7=
EXTT8=
EXTT9=
EXTT10=
EXTT11=
EXTT12=
EXTT13=
EXTT14=
EXTT15=
EXTT16=
EXTT17=
EXTT18=
EXTT19=
EXTT20=
PLAYORDER=
